<?xml version="1.0" encoding="UTF-8"?>
<svg id="Layer_2" data-name="Layer 2" xmlns="http://www.w3.org/2000/svg" viewBox="0 0 880.14 118.19">
  <g id="_Layer_" data-name="&amp;lt;Layer&amp;gt;">
    <path d="M0,118.19h880.14c-6.11-2.63-13.58-7.8-19.95-4.23-.81-.32-.34-1.28-.79-1.84-.55-.7-2.17-.98-2.91-1.45-5.35-3.7-12.56-1.03-18.73-1.77-2.7.42-5.03-.09-6.51-2.45-1.34-.21-1.66-1.44-2.53-2.38-1.09-.89-2.66-1.41-3.74-2.35-1.04-1.86-3.01-2.31-4.98-1.66-.08.34-.15.7-.22,1.04-3.14.03-5.99,2.87-8.73,2.59-.31-.22-.66-2.04-.92-2.48-.78-1.56-2.74-2.56-4.32-3.25-1.46-.01-1.74,1.8-3.23.98-1.06-2-3.31-2.9-4.3-4.91-.62-1.53-.66-2.98-1.58-4.29-1.34-1.57-3.57-7.6-5.75-4.65-.83.65-2.96.62-2.91,1.99-3.42.13-6.41,1.87-9.18,3.75-3.97,4.36-9.23-3.76-14.99-.89-3.72.63-6.3,4.84-10.16,5.98-2.56,1.44-5.74,1.03-8.27,2.81-2.35,3.25-6.96,2.41-10.44,2.8-1.89,1.24-4.63,3.22-6.91,1.79-2.67-2.59-2.9-2.36-5.08.45-3.46,1.27-9.04,1.64-12.01-1.3-5.17-2-10.05-4.87-15.31-6.54-5.05-.54-8.75-4.16-13.45-5.61-13.83-4.71-28.16-10.15-39.01-19.88-.07-.25-.12-.5-.17-.75-5.13-1.64-11.79,5.26-15.98.72-.48-.72-.32-1.36-1.47-1.3-1.62.24-2.63,1.96-4.15,2.49-7.5-1.72-10.91,1.52-15.26-7.43-1.55-5.1-8.28-.38-11.07-3.34-4.05-3.73-4.39-10.14-9.75-12.43-4.83-2.56-8.85-3.54-11.74-8.62-1.27-1.75-7.11,4.73-9.45,4.98-6.34,1.6-7.9,9.34-14.29,10.98-5.02,1.8-7.96,6.67-12.38,9.35-.9,1.71-2.26,2.43-4.15,2.3-1.45.79-4.41.75-4.81,2.58-16.84,7.42-15.94-7.26-27.32-4.6-6.41-7.59-9.22-13.37-20.14-11.89-7.5-4.49-8.88-16.43-14.52-23.21-4.84-8.12-9.73-16.53-16.01-23.54-1.42-2.66-3.5-5.43-6.58-5.91-5.25-2.7-5.66,1.87-9.32,4.11-1.47,3.71-5.94,2.09-9.13,2.12-4.96-.99-8.56,1.27-11.3,5.1-4.15,1.96-6.66,7.37-11.38,8.89-4.93,2.4-9.03,6.34-14.22,8.26-1.96.22-3.17,1.47-4.45,2.85-5.6,3.02-9.29,9.61-15.85,10.35-.69.95-1.55,1.13-2.71,1.4-2.04,1.2-4.13,1.24-6.39,1.36-5.07,2.79-9.5,7.4-14.36,10.45-.77.25-1.64.71-1.97,1.49-.64.35-1.08.21-1.72.38-1.94.28-2.6,2.16-3.41,3.5-3.7,1.11-8.85,2.91-11.91-.7-5.01.03-9.88.47-14.67-1.19-2.62.9-6.16.97-6.64-2.15-.67-.19-1.35-.36-2.04-.44-.67-2.32-5.13-2.34-6.75-1.04-2.73,3.76-7.31,4.61-11.72,4.35-8.85.43-17.49,9.6-26.46,5.66-8.92-3.89-17.57-8.34-27.11-10.57-3.99-2.33-7.62-5.84-12.29-6.64-2.15.42-4.02.62-6.23.47-1.81-.19-2.55,1.81-4.17,2.32-1.64,2.26-3.68,3.96-6.64,4.13-2.09.81-4.07,2.57-6.38,2.89-3.6.53-6.81,2.04-10.41,2.28-1.44,1.6-3.3,2.79-5.21,3.82-8.17,5.24-16.58,9.87-25.12,14.32-2.57.28-4.1,2.65-6.76,2.56-2.65-.04-5.31,0-7.97,0-4.17-.6-7.8,1.89-11.79,2.66-14.75,2.45-17.47-10.44-33.26-4.17-3.99,2.6-9.34,1.25-13.85,1.51.03,3.83-1.27-.07-4.13,2.07-2.48,2.56-3.81,5.83-7.19,7.55-1.26,3-4.94,4.13-7.89,4.48-4.71,0-4.96-7.09-7.86-9.41-4.53-3.24-8.77,2.99-12.41,4.89-.97,1.13-2.75,5.7-3.21,7.27-2.36,15.28-19.57,4.69-28.36,10.03-2.45,1.94-9.36,10.13-9.36,10.13Z"/>
  </g>
</svg>