<?xml version="1.0" encoding="UTF-8"?>
<svg id="Layer_1" data-name="Layer 1" xmlns="http://www.w3.org/2000/svg" viewBox="0 0 5500 2000">
  <defs>
    <style>
      .cls-1 {
        fill: #fff;
      }
    </style>
  </defs>
  <rect class="cls-1" width="5500" height="2000"/>
  <g>
    <path d="M5302.99,1418.42c-1.83-6.43-8.31-4.43-12.72-4.59-37.32-1.36-73.8-5.04-103.36-31.66-69.76-29.29-135.43-65.71-188.8-120.67-4.63-4.76-7.66-10.64-11.35-15.64-19.36-26.31-32.38-57.89-64.3-74.12-38.99-19.84-66.81-52.18-89.97-88.57-12.12-19.04-27.52-34.61-45.96-47.45-4.92-3.43-14.32-5.47-15.13-3.73-10.16,21.6-21.61,2.13-33.35.97,23.78-13.13,40.44-33.96,61.17-50.11,22.61-17.61,42.41-36.55,34.32-70.87-4.27-18.11,1.78-36.83,12.56-54.34,7.16,8.82,8.03,17.5,8.33,25.99.84,23.81,10,41.76,31.81,53.68,44.25,24.17,81.85,56.93,116.62,93.16,6.36,6.63,14.15,11.93,21.49,17.58,2.89,2.22,7.68,6.06,9.35,5.13,16.58-9.27,35.84,2.72,51.62-6.13,22.76-12.75,37.65-.89,53.36,13.3,47.1,42.54,101.73,70.75,163.94,84.01-.02-12.3.22-12.85-8.52-16.71-59.57-26.35-107.3-69.76-157.84-109.11-2.12-1.65-6.22-2.16-5.46-6.44,1.65-9.2,31.1-20.62,39.16-14.93,36.48,25.77,73.47,50.42,120.1,52.97,4.26.23,11.11,7.26,13.28-2.83,1.49-6.95-2.89-10.02-8.75-11.85-44.56-13.86-81.7-39.93-116.28-70.34-8.37-7.36-16.98-6.68-27.12-1.05-18.19,10.1-37.37,18.43-56.2,27.37-23.08,10.96-43.24,8.57-61.97-10.53-10.85-11.07-19.23-24.14-30.47-34.62-43.73-40.8-87.68-81.36-131.75-121.79-4.46-4.09-10.21-6.81-15.51-9.91-5.96-3.48-12.21-3.39-17.12,1.48-25.11,24.92-54.74,43.77-83.88,63.35-10.24,6.88-18.65,14.86-33,8.11-6.38-3.01-15.38-.48-22.78,4.39-28.83,18.94-58.99,35.4-91.36,47.75-7.05,2.69-12.3,2.35-19.01-.81-18.76-8.83-33.71-20.9-47.1-37.4-11.31-13.94-24.37-33.68-46.71-28.39-23.27,5.51-45.79,15.74-64.82,30.61-39.38,30.76-84.58,49.92-129.81,69.6-12.51,5.44-20.14,2.77-28.69-5.9-29.52-29.9-58.71-60.08-84.62-93.25-16.98-21.74-37.99-32.79-66.36-25.27-11.9,3.16-24.13,5.09-36.19,7.63-12.65,2.66-25,2.85-34.11-8.05-33.35-39.9-85.35-53.85-122.56-88.35-1.77-1.64-4.17-2.64-6.37-3.74-10.7-5.37-18.71-12.8-25.22-23.44-8.3-13.56-18.56-27.12-35.4-30.93-12.83-2.9-21.52-10.91-26.71-21.13-11.49-22.64-28.31-36.39-52.05-46.31-12.72-5.32-17.23-2.41-24.19,4.88-13.04,13.65-22.86,31.05-42.99,36.35-49.44,13.01-75.72,52.92-103.43,90.51-6.91,9.37-11.34,12.71-21.01,5.68-3.96-2.88-8.75-4.62-12.77-7.43-26.11-18.24-54.86-13.54-74.68,9.91-21.91,25.93-44.6,51.21-66.09,77.48-8.94,10.93-16.06,13.83-30.74,8.17-29.5-11.38-51.01-31.85-71.61-53.97-7.65-8.22-16.19-14.2-26.96-14.25-12.56-.06-23.72-5.57-35.81-7.45-11.18-1.74-24.4-8.21-29.59-19.82-7.82-17.5-21.01-29.5-33.67-42.95-8.78-9.32-15.15-9.27-22.9-3.28-24.78,19.18-51.93,35.4-73.93,58.08-3.95,4.07-7.08,9.08-13.79,5-10.48-6.37-23.48-10.31-29.36-21.76-12.67-24.68-34.53-41.63-50.7-63.21-7.54-10.06-15.49-10.23-23.27-4.08-8.98,7.09-19.46,11.95-27.15,21.23-15.35,18.5-32.18,35.78-48.31,53.64-12.65,14.01-27.09,23.96-47,17.89-7.48-2.28-12.15.47-16.07,5.4-19.06,23.92-45.98,38.9-67.54,59.92-4.47,4.36-7.48,4.31-12.63,1.77-35.87-17.71-66.45-42.33-93.03-71.83-9.59-10.65-18.4-19.55-34.32-15.53-6.8,1.72-13.09-1.15-19.19-4.8-20.46-12.22-29.6-33.91-37.69-53.31-12.67-30.36-33.23-37.25-62.38-35.18-33.08,2.35-32.42,1.25-46.76-28.45-10.34-21.41-17.36-47.32-51.06-43.58-7.45.82-17.13-6.03-20.52-16.32-1.9-5.78-4.64-11.69-8.44-16.38-23.13-28.59-26.63-40.38-59.46-9.92-9.98,9.27-20.13,17.86-32.15,24.61-35.36,19.85-66.91,43.19-82.27,83.53-5.84,15.33-18.2,27.86-30.63,38.93-12.86,11.44-27.71,21.3-45.62,19.9-10.97-.86-16.35,2.96-23.13,10.58-34.58,38.84-27.14,47.8-75.43,9.64-7.38-5.83-14.77-11.05-24.53-2.77-43.84,37.22-94.32,65.29-139.49,100.8-29.46,23.17-30.19,22.21-52.72-6.85-18.51-24.58-43.04-40.16-70.15-19.88-36.17,26.05-76.09,45.35-113.58,68.83-13.36,8.36-20.11,8.33-30.44-3.42-22.13-25.19-45.54-49.6-83.51-47.43-23.45,1.34-34.49-13.68-41.87-32.4-14.49-36.75-46.81-55.49-76.72-76.42-9.41-6.59-18.71-6.76-28.67,4.61-15.58,17.78-33.2,33.99-52.34,48.39-38.63,29.05-75.22,60.93-94.39,106.38-17.95,42.55-59.59,47.89-93.44,65.83-1.94,1.03-6.36-.4-8.39-2.14-14.71-12.6-34.02-17.1-49.22-29.21-23.26-18.53-48.14-30.65-76.15-7.31-6.74,5.62-11.96,1.71-16.87-4.4-15.6-19.4-36.37-33.22-54.86-49.5-3.51-3.1-7.25-7.38-12.86-3.26-2.54,1.87-4.74,2.74-6.71,2.95-2.65-.96-5.09-2.18-7.62-3.28-1.69-1.75-3.2-3.96-4.64-6.34-3.29-5.42-7.31-10.49-13.19-12.6-24.89-8.93-39.02-28.95-53.1-49.43-6.28-9.13-13.9-17.33-20.96-25.92-6.16-7.49-12.26-9.06-20.13-1.51-38.75,37.17-78.03,73.8-116.63,111.12-17.21,16.64-22.64,17.21-38.95.11-15.3-16.05-35.91-16.18-50.59.94-30.9,36-68.61,65.65-96.76,104.14-4.08,5.58-8.64,6.04-14.47,3.95-23.41-8.39-48.17-13.59-67.79-30.65-5.01-4.35-11.35-8.48-17.66-9.72-8.26-1.61-17.46-7.93-25.64,1.16-12.1,13.46-28.3,21.5-42.59,32.08-44.14,32.67-90.57,61.48-139.47,86.39v25.97c24.21-11.92,51.26-16.55,74.98-29.91,30.36-17.09,56.42-39.83,83.23-61.59,19.46-15.8,31.35-16.83,49.83-.7,19.69,17.2,42.47,21.03,67.4,18.08-36.01,60.62-94.46,102.32-134.05,159.77,18.56,9.53,29.05-1.39,39.46-11.43,55.07-53.13,110.38-106.01,156.26-167.74,11.3-15.2,28.35-24.19,43.5-34.86,14.3-10.06,28-20.54,38.49-34.35,8.38-11.04,15.92-15.82,27.85-4.86,3.3,3.03,8.91,3.55,14.36,5.55-6.39,7.17-12.88,14.11-18.97,21.39-3.21,3.83-6.38,8.93-2.12,13.24,5.87,5.94,7.92-1.93,11.38-4.41,15.42-11.09,30.82-22.2,48.4-34.87-2.13,14.21-18.85,21.77-9.91,36.55.75,1.24-8.62,9.44-14.02,13.42-32.98,24.32-54.94,58.73-81.8,88.64-1.69,1.88-1.67,4.59.58,7.18,47.75-14.76,81.06-56.29,128.93-72.23-20.98,18.61-36.32,41.39-54.7,61.44-24.19,26.38-48.91,52.27-73.18,78.58-9.24,10.02-15.17,16.16-31.01,4.89-23.96-17.05-51.07-6.16-75.9,3.76-35.15,14.04-65.36,36.98-97.92,55.69-20.37,11.7-40.08,25.09-65.6,18.1-.53-.14-1.83,2.53-2.76,3.89,1.62,6.87,10.65,8.37,11.48,15.82-13.29,11.36-27.52,13.01-45.23,10.66-15.11-2.01-30.3,7.64-44.51,14.85-14.75,7.49-29.63,14.71-44.44,22.05v18.55c21.07-3.41,36.93-20.86,57.66-23.37,60.95-7.36,110.46-39.56,161.34-69.81,30.51-18.14,59.97-39.28,95.78-46.69,18.42-3.81,37.18-9.25,54.29,4.72,3.38,2.76,7-.53,10.21-1.79,13.39-5.28,24.6-13.92,35.26-23.39,28.23-25.1,54.15-52.61,78.84-80.96,25.14-28.86,54-51.06,88.7-66.92,33.75-15.43,64.66-71.5,61.43-107.66-1.1-12.34-8.91-17.12-18.57-12.23-12.6,6.38-26.58,4.5-39.89,10.3,20.17-32.08,36.95-64.53,33.69-108.85,11.04,18.49,18.02,32.76,28.83,44.46,11.69,12.64,22.69,25.67,38.66,33.72,28.26,14.25,41.73,40.67,52.72,68.35,12,30.21,34.97,52.6,53.14,78.65-8.9-34.6-26.34-65.76-36.49-102,12.76,7.66,22.2,14.88,30.34,24.02,18.65,20.93,36.68,23.81,59.47,7.23,10.04-7.3,16.52-6.39,26.13-.32,18.73,11.82,38.39,22.15,57.82,33.19-.99.71-2.68,1.41-3.61,2.67-46.59,63.51-122.48,82.67-185.02,122.02-5.15,3.24-11.15,5.16-16.77,7.64-12.42,5.49-21.68,4.16-31.68-7.42-20.91-24.21-54.26-30.45-78.85-50.31-5.31-4.28-19.29-.28-27.24,8.77-59.46,67.79-128.13,126.63-188.73,193.35-8.69,9.57-19.94,16.1-31.72,21.94-37.07,18.39-70.35,42.86-104.32,66.22-40.69,27.99-86.84,46.81-127.82,73.87-27.13,17.91-53.72,30.87-86.44,28.81-16.07-1.01-30.95,7.95-47.17,5.33v22.25c75.33,2.21,150.68,4.18,226,6.69,198.38-1.69,396.81-6.37,595.28-6.66,202.73,6.88,405.2-8.3,607.85-11.62,314.06-3.94,627.95,18.9,942.01,1.8,172.36-4.53,344.6-13.79,517.13-5.68,76,3.57,151.91-2.49,227.89-5.55,141.41-5.69,282.92-.88,424.38,2.39,176.89,5.58,354.09,10.98,531.04,5.83,98.69-4.06,197.25-10.13,296.11-9.88,120.62.31,240.98,11.61,361.65,8.07,81.58-2.39,163.12.26,244.69.03,41.13-2.12,82.22-5.11,123.37-6.93,11.06-.5,11.84-6.47,9.61-14.35ZM4961.87,1250.79c-20.67-18.01-41.35-36.02-62.01-54.04,31.72,5.51,53.54,22.08,62.01,54.04ZM4633.93,967.46c14.07-1.65,23.96-12.09,37.07-17.92,2.48,8.72-11.21,12.21-4.03,18.85,7.41,6.86,13.13-1.8,19.32-4.98,25.67-13.16,51.41-26.18,77.13-39.25,2.18-1.11,5.71-2.46,6.37.1,5.55,21.58,15.68.68,24.41,4.25-15.83,30.75-43.03,55.37-62.43,84.22-11.44,17.21-11.25,30.08,3.85,43.47,2.07,1.84,3.13,4.81,5.12,8.01-23.71-4.86-46.12-9.78-67.44-18.88-5.46-2.34-9.39-5.6-12.33-10.51-11.83-19.82-21.44-40.68-30.12-62.05-2-4.91-.32-4.91,3.08-5.31ZM4495.73,891.34c91.23,112.27,95.95,39.6,145.12,137.22,13.07,22.43,34.72,30.63,53.84,41.96,42.96,25.45,91.73,39.83,134.28,66.38,8.47,5.29,14.27,14.86,24.23,25.63-22.2-10.01-38.8.03-55.63,4.47-29.94,7.9-57.14,5.7-82.34-13.65-11.5-8.83-25.64-11.57-39.7-14.18-48.22-8.94-87.57-33.75-120.48-69.13-11.53-12.4-22.13-23.29-40.78-13.89-4.23,2.14-10,1.17-14.31,3.21-30.17,14.33-58.55,16.58-87.41-5.13-24.68-18.56-55.22-26.72-82.77-40.31-8.1-3.99-16.99-7.17-22.94-17.34,69.09-25.8,145.38-35.59,188.88-105.23ZM4640.56,1229.55c-38.17-16.43-77.11-30.44-99.77-69.94-16.13-28.12-44.55-45.43-69.55-66.62,11.75-5.95,24.66-15.48,33.55-9.48,14.94,10.08,37.41,14.58,43.93,31.03,14.17,35.77,45.9,55.96,67.33,84.96,7.62,10.32,16.87,19.43,24.51,30.05ZM3894.39,747.58c38.04,22.72,32.58,66.87,50.28,99.7-27.72-27.86-53.86-56.62-50.28-99.7ZM3712.67,848.13c10.8-9.18,10.73,2.55,14.19,6.6,32.37,37.88,47.21,84.04,60.17,131.85-16.11-18.56-32.42-36.95-48.2-55.77-4.7-5.61-8.39-12.21-8.45-20.11-.13-17.82-5.09-33.81-16.32-48.11-2.46-3.14-8.94-8.03-1.38-14.44ZM3183.29,776.27c6.29-10.69,8.27-23.92,13.08-38.8,17.13,26.18,36.82,47.47,50.19,73.14,8.14,15.63,20.89,27.37,31.95,40.53,3.37,4,8.47,8.95,14.27,4.27,6.15-4.95-.71-8.64-2.91-12.27-7.31-12.04-15.06-23.81-25.5-40.13,26.72,9.21,54.3,4.23,69.36,27.91,15.36,24.16,39.18,31.8,64.06,39.14,5.11,1.51,11.18,1.29,15.91,7.03-16.98,15.43-30.42,34.51-57.12,36.19-25.97,1.63-44.8,18.38-62.46,35.95-6.05,6.02-12.45,11.7-19.12,17.94-2.15-3.61-4.35-6.05-5.18-8.89-7.16-24.78-22.93-41.19-46.71-51.11-16.25-6.78-27.59-15.13-16.78-37.13,10.76-21.91-3.27-40.71-17.52-56.41-10.92-12.03-14.46-22.19-5.54-37.35ZM3303.53,1042.96c-16.22,20.77-37.32,34.4-60.25,45.39-1.14-1.57-2.28-3.15-3.43-4.72,21.22-13.56,42.45-27.11,63.67-40.67ZM2157.54,806.55c-26.93,27.82-47.02,55.96-80.68,68.69-19.07,7.21-33.47,20.56-45.08,37.07-1.97,2.79-5.8,5.25-1.98,9.3,3.02,3.2,6.89,3.03,10.21,1.45,3.84-1.83,6.87-5.48,10.76-7.07,16.65-6.82,27.85-23.85,50.9-19.97,11.39,1.92,25.25-10.83,37.99-16.96,13.82-6.64,30.08-2.14,39.27,10.87,7.8,11.04,25.08,11.28,32.16-.66,27.97-47.12,66.82-85.48,101.33-127.33,4.57-5.55,8.18-11.9,12.78-18.7,4.65,10.42.71,18.86-3.83,27.26-10.53,19.48-22.17,38.35-29.09,59.68-2.75,8.46-2.83,13.88,4.14,21.13,23.76,24.73,25.33,34.4,8.11,64.71-12.01,21.15-6.19,38.31,6.29,55.68,4.78,6.65,12.16,5.91,18.54,5.05,8.26-1.11,4.78-8.56,5.11-13.54.27-4.03-.45-8.13-.7-11.73,36.64,2.74,43.52,30.77,54.47,57.75-9.88.53-11.46-6.3-15.91-9.28-.91,15.27,28.32,69.49,52.89,95.02-2.46-34.5-2.85-64.87-9.5-99.51,12.3,14.91,21.76,26.97,31.87,38.47,10.45,11.88,17.9,26.47,33.3,33.92,14.53,7.02,22.53,22.72,38.42,30.58,4.79-13.07,1.54-25.61-3.79-36.52-23.06-47.09-31.05-98.46-43.45-148.54-5.42-21.89-6.55-23.9-31.64-26.9-3.51-.42-5.59-2.45-6.47-5.46-12.53-49.64-85.5-81.06-65.24-109.84,13.38-20.98,4.88-40.41-7.04-55.18-19.68-24.38-19.85-47.08-8.41-74.42,8.69-20.78,12.67-43.54,19.24-67.15,8.13,15.24,21.33,24.42,32.17,35.85,6.95,7.34,14.29,13.53,27.12,9.33,9.86-3.23,17.66,6,21.3,14.45,11.52,26.74,24.56,52.42,18.9,84.22-8.54,50.27,10.39,96.99,27.9,143.95,15.64-27.89,6.67-55.93,9.93-87.69,12.57,31.22,26.85,57.06,42.85,81.95,2.69,4.18,2.66,9.47,1.28,14.44-6.06,21.9-1.95,42.95,6.28,63.27,7.97,19.67,2.39,38.74-.05,58.23-.99,7.94-3.86,22.32,4,23.11,11.23,1.12,8.46-13.77,10.6-21.64,3.85-14.17,4.94-29.07,7.89-43.52,2.12-10.39.25-20.15-5.21-28.43-11.83-17.92-10.62-36.67-3.1-54.7,5.44-13.03,2.56-22.55-5.79-31.82-10.88-12.08-18.43-25.9-24.76-40.84-5.69-13.42-10.09-26.83-6.2-41.11,5.25-19.27-4.03-32.05-17.69-42.91-5.18-4.11-10.13-7.48-7.4-14.89,2.53-6.87,8.96-5.27,14.26-5.91,15.1-1.84,23.45,3.16,31.1,18.37,18.27,36.32,32.5,76.02,68.09,101.03,7.18,5.04,13.26,10.79,23.23,7.58,9.13-2.94,14.98,4.95,17.66,10.46,16.1,33.06,49.44,41.58,81.2,58.31-28.12,12.41-35.14,37.5-45.82,61.56-8.37,18.84-24.69,34.15-36.47,52.06,22.8-8.78,40.62-23.56,53.84-43.89,27.17-42.32,70.98-65.51,115.23-86.9-5.86,6.55-11.66,13.16-17.6,19.64-40.08,45.19-75.38,103.37-137.12,121.49-47.55,12.33-85.69,37.02-106.79,83.35-5.05,11.09-14.26,18.56-23.28,26.01-13.88,11.46-26.18,24.41-38.17,37.77-5.28,5.88-8.16,11.78-4.63,22.41,31.35-32.39,73.88-47.27,99.77-85.32,19-27.92,48.48-46.78,83.28-54.8,79.19-17.15,89.84-75.85,155.61-97.78,7.73-2.39,13.99-9.55,23.06-16.05-7.64,18.04-12.48,35.49-24.52,48.54-16.2,17.57-22.11,38.17-23.28,60.62,33.01-24.53,55.1-58.4,74.77-93.71,9.57-17.17,20.7-31.42,37.5-41.8,26.48-16.36,41.98-37.43,42.94-71.77.8-28.91,4.58-58.97,14.92-87.08,2.51-6.81,3.23-16.32,10.79-17.89,6.05-1.26,7.71,8.33,12.15,12.34,28.49,25.68,50.17,73.62,94.72,71.59.38,7.66-4.07,12.09-7.84,16.85-26.76,33.79-42.2,70.44-37.68,115.32,1.65,16.4-8.03,33.58-24.64,42.96-14.1,7.97-28.55,15.31-43.26,23.15-1.92-8.03,6.64-13.45-.92-25.31-41.48,84.11-110.09,135.06-193.33,171.88,7.83-19.18,22.31-29.7,38.13-36.94,38.09-17.44,50.54-53.24,65.79-87.31.51-1.15-.95-3.18-1.93-6.1-11.57,8.74-18.59,20.39-27.11,30.57-16.19,19.35-35.1,34.26-59.74,41.78-19.45,5.93-35,19.3-47.88,33.93-35.77,40.64-83.25,62.06-130.41,84.9-29.8,14.43-58.57,31.13-87.02,48.13-9.28,5.54-15.76,6.33-24.97.75-43.13-26.13-90.31-47.18-128.8-78.84-29.06-23.9-59.69-50.18-77.08-86.54-7.14-14.93-16.71-28.75-25.78-42.67-2.52-3.87-5.21-10.18-10.51-9.57-20.91,2.41-28.04-13.53-39.74-26.16,2.48,9.6,4.81,19.24,7.52,28.77.81,2.85,2.4,7.58,4.06,7.77,25.06,2.89,18.03,27.6,27.13,41.43-18.48-13.59-35.45-28.35-41.99-51.87.93-10.62-2.24-20.19-6.8-29.66-2.59-5.38-6.57-6.36-11.25-5.22-7.01,1.72-2.5,6.11-1.45,9.37,2.38,7.4,3.27,15.42,8.55,21.69-.64,4.72,5.67,8.52,1.95,13.75-8.64-12.06-16.89-24.25-25.88-35.87-4.82-6.22-10.87-14.66-19.45-11.11-8.85,3.67-11.99,13.08-10.63,23.18.45,3.38,2.65,6.96-.03,10.45-7.94-.09-9.73-7.06-13.64-11.41-13.2-14.7-26.84-29.06-39.29-44.38-14.41-17.73-32.94-25.13-55.1-25.34-9.28-.09-18.66-1.16-27.81-.17-31.37,3.39-58.3-3.11-75.67-32.53,69.61-26.51,121.48-83.88,193.03-118.94ZM1880.73,875.68c9.73-5.24,19.41-10.63,29.47-15.17,3.8-1.72,6.78-5.07,12.8,1.62,8.99,9.99,17.93-2.06,24.17-8.04,20.02-19.19,38.97-39.5,58.18-59.52,7.63-7.95,16.44-14.84,21.34-25.26,4.41-9.38,11.13-10.08,19.44-4.15,10.43,7.44,21.19,14.41,32.86,22.29-25.18,30.51-59.53,46.95-90.54,67.72-19.98,13.38-39.55,27.18-58.07,42.51-10.65,8.81-49.41-1.42-54.73-14.3-2.12-5.13,2.18-6.13,5.09-7.7ZM1418.6,1001.47c14.21-15.72,21.63-34.75,6.46-56.98-13.21-21.63-22.22-42.77,3.32-62.65,6.79-5.29,4.83-13.53,2.43-20.7-2.34-7-4.91-13.98-8.12-20.62-2.73-5.65,2.14-16.31-7.05-16.73-8.45-.38-7.67,10.94-13.38,18.2-10.92-33.01,18.71-59.99,10.13-91.92,15.3,26.02,47.51,34.37,58.71,64.6,10.62,28.65,33,45.66,65.65,44.2,21.56-.96,39.41,6.31,55.17,21.03,8.82,8.23,19.52,14.46,30.5,22.4-14.41,9.44-28.38,17.96-41.63,27.47-10.84,7.78-22.67,5.19-33.98,4.14-16.55-1.53-28.1,4.75-38.3,17.24-23.41,28.65-47.37,56.85-71.48,84.91-22.33,25.98-53.43,35.19-84.83,43.2,24.38-24.72,43.64-52.79,66.39-77.79ZM1278.61,924.95c-5.63,15.77-11.74,31.21-30.55,40.73,7.81-17.47,20.43-28.2,30.55-40.73ZM930.38,1342.28c-37.76,17.91-80.52,25.17-122.37,26.34-55.63,1.56-109.21,12.37-161.81,28.08-26.6,7.94-53.29,8.69-80.14,11.76-83.2,8.92-165.35,15.39-249.24,12.65,23.16-14.94,46.18-20.96,68-29.67,46.04-18.4,88.01-44.22,129.52-70.92,26.7-18.12,24.97,5.76,57.57-25.88,29.67-27.08,59.13-54.39,88.93-81.33,21.63-19.56,51.58-28.79,67.61-57.48,3.94,10.93-5.87,15.18-4.64,25.37,24.72-18.64,39.18-44.09,57.66-66.24,5.87,1.63,3.58,6.22,3.17,10.25-.76,7.33-4.6,16.58-1.55,21.68,11.59,19.38-.78,27.74-12.98,39.31-26.4,25.04-55.54,46.58-87.26,70.01h19.75c-29.43,26.68-66.42,42.55-89.92,80.28,38.97-16.63,73.76-31.13,104.16-53.82,13.72-10.24,31.43-14.76,42.04-29.21,5.7-7.76,9.49,3.63,16.26.63,14.43-6.41,27.08-14.51,38-25.69,12.95-13.25,28.13-24.97,38.39-40.03,14.29-20.98,41.11-18.58,57.65-36.28,16-17.13,38.42-27.9,60.61-38.88-29.03,46.11-67,81.74-110.27,112.32-20.22,14.29-38.85,30.53-51.88,52.53,6.48,2.45,11.2-1.12,15.77-3.77,32.68-19.02,62.51-42.64,98.76-55.98,19.9-7.33,34.53-23.64,43.75-43.37,12.72-27.23,30.16-48.87,57.59-63.96,31.99-17.59,58.76-41.89,80-72.86,11.97-17.46,27.41-34.54,54.08-41.86-15.19,31.04-31.43,56.2-56.41,74.92-7.6,5.7-12.33,13.75-16.63,21.82-15.91,29.84-31.78,59.79-42.77,91.82-3.29,9.61-8.53,15.72-16.45,21.1-38.76,26.28-78.91,50.52-116.03,79.25-12.2,9.44-23.31,18.99-26.65,36.44,13.59-2.66,23.85-10.54,33.84-18.05,38.15-28.68,82-47.62,123.12-71.07,24.19-13.79,35.73-36.52,53.09-55.01,15.22-16.22,31.01-28.72,54.29-31.66,17.09-2.16,27.98-12.35,30.04-32.03,1.96-18.79,8.63-37.04,12.18-55.74,2.27-11.99,6.85-22.72,15.11-31.16,20.58-21.03,42.36-40.59,76.3-48.27-9.98,21.66-18.63,40.45-28.77,62.47,55.81-30.44,78.85-83.75,114.17-127.02-15.6,28.28-31.21,56.55-46.76,84.86-6.27,10.97-16.89,33.27-4.07,41.59,8.13,4.95,13.71-7.83,18.92-13.82,12.94-14.88,24.96-30.58,36.85-46.32,4.18-5.53,7.87-10.98,17.42-12.66-6.24,18.97-20.43,30.86-31.88,44.19-15.75,18.34-30.53,37.15-42.23,58.37-22.05,39.98-51.18,75.15-77.2,112.44-2.95,4.22-6.34,7.38-11.45,8.72-44.15,11.55-82.37,35-120.63,58.82-55.94,34.83-115.23,63.86-174.6,92.02ZM1375.85,1239.87c-9.17,1-16.97.57-24.52-2.97-23.99-11.21-47.36-9.44-71.73-.43-60.6,22.43-121.56,43.91-182.46,65.53-8.58,3.05-17.65,4.72-27.26,5.45,45.14-24.78,82.99-63.36,132.93-77.11,64.78-15.42,85.46-28.18,124.93-81.85,13.71-17.78,30.07-32.87,50.51-39,66.37-20.14,104.82-77.02,151.98-122.79,5.7-5.9,11.6-11.68,20.88-8.37,23.92,8.55,43.15-.38,61.05-15.6,5.98-5.08,12.88-9.1,19.36-13.6-8.75,24.5-22.8,45.13-38.81,64.48-4.81,5.81-10.85,11.93-18.01,12.24-25.36,1.09-34.6,20.91-45.39,38.09-8.42,13.41-16.26,27.65-16.66,44.53-.19,8.37-7.07,12.05-13.34,16.42-33.19,23.16-66.89,45.68-97.88,73.94,8.3,5.9,14.92,2.89,21.61-1.45,31.53-20.45,63.11-40.82,94.63-61.28,11.45-7.43,18.72-16.88,19.02-31.67.35-17.52,9.36-31.79,25.95-36.82,27.69-8.39,43.44-29.35,58.35-51.02,17.1-24.85,31.55-51.51,48.53-76.45,26.15-38.38,67.04-58.53,105.62-84.43-5.24,27.05-9.92,51.61-14.76,76.15-7.49,38.03-33.73,64.28-58.32,91.35-20.23,22.28-41.34,43.77-62.13,65.54-2.53,2.65-5.1,5.87-8.32,7.15-66.51,26.41-123.86,67.65-180.9,109.74-22.15,16.35-45.7,31.03-74.87,34.2ZM2401.23,1345.28c-8.7,4.14-15.52,2.71-24.27-.96-45.84-19.27-87.77-44.51-125.96-76.38-16.2-13.52-37.91-13.78-56.94-20.55-37.06-13.18-69.49-36.81-106.29-50.13-24.09-8.72-42.14-23.27-61.03-39.34-20.45-17.39-44.12-31.42-67.63-44.68-17.33-9.78-30.67-20.03-36.95-40.59-4.96-16.23-17.57-29.04-36.08-33.41-12.8-3.02-18.38-13.87-23.46-24.43-5.33-11.08-9.78-22.59-14.47-33.97-3.14-7.62-7.06-14.25-19.61-16.11,15.21,30.25,13.06,65.58,40.13,88.62,4.84,4.12,4.43,9.61,5.11,15.14,2.33,19.17,8.9,37.13,17.55,54.22,17.46,33.97,37.15,21.18,56.03,45.26-9.03-1.78-16.96-2.73-24.51-4.95-18.34-5.39-32.63,1.05-48.12,11.18-37.57,24.56-75.85,47.97-111.35,75.61-6.47,5.03-13.06,10.03-16.8,16.89-12.06,22.16-32.59,31.15-55.22,36.26-36.88,8.33-71.6,22.42-106.08,37.37-2.23.97-4.14,2.77-6.95.79,36.07-33.61,72.78-66.17,115.57-91.34,39.58-23.27,71.61-55.95,104.93-86.94,4.25-3.95,6.39-8.83,8.97-13.75,2.83-5.37,4-9.59-.22-15.09-4.77-6.23-10.58-3.57-15.09-2.01-10.96,3.79-21.42,9.04-31.78,13.58-6.12-44.21,25.42-78.54,34.11-123.35-29.15,15.9-41.67,45.18-72.51,54.12,9.36-27.71,19.18-53.09,33.09-76.83,2.35-4.02,5.87-5.19,9.91-7.04,21.19-9.69,33.51-48.13,21.64-66.89-2.86-4.52-1.8-7.9-.4-12.02,6.5-19.13,11.23-38.73,14.64-59.04,7.93,1.04,9.53,7.91,13.04,12.34,27.65,34.96,60.73,62.23,102.54,79.46,41.37,17.05,66.11,50,79.53,92.07,4.11,12.88,7.44,26.01,13.96,38.11,5.46,10.15,12.69,21.31,22.58,23.41,45.03,8.98,29.18,76.27,80.09,96.82-6.43-16.35-16.72-31.14-20.89-53.89,18.07,31.65,30.92,60.73,59.97,77.68,2.46-7.17-2.82-10.86-5.53-15.05-17.38-27.01-32.57-55.02-44.36-85.01-5.37-13.65-12.42-27.71-28.54-31.96-23.18-6.11-34.85-21.38-38.31-44.28-3.04-20.11-10.95-38.6-21.19-58.45,21.96,2.38,41.87.94,61.74-4.26,12.54-3.28,21.8-.24,28.5,14.8,9.16,20.58,23.18,39.12,35.96,57.95,18.29,26.95,37.13,53.53,56.14,79.98,20.9,29.08,48.72,45.51,85.14,49.05,16.33,1.59,32.27,7.35,49.06,4.37,4.23-.75,6.88,1.91,9.83,4.11,54.62,40.7,119.25,60.2,182.21,86.49-18.26,10.56-38.52,17.33-51.56,30.98-19.92,20.84-46.3,24.8-69.9,36.03ZM3069.02,1075.13c-44.3-6.68-74.21,10.56-105.21,35.12-62.89,49.84-129.05,94.78-199.95,132.78-27.93,14.96-56.26,27.09-87.37,33.85-65.06,13.15-129.18,31.82-194.41,43.59,46.75-21.32,90.13-48.56,136.18-70.42,22.68-10.77,47.84-16.22,70.8-26.49,100.56-43.39,228.36-64.68,281.94-172.53,8.77-17.78,25.93-27.67,41.93-38.11,10.3-6.72,21.29-12.4,31.66-19.03,11.27-7.2,20.33-16.84,22.5-30.36,4.35-27.15,19.38-50.2,27.7-75.76,1.85-5.69,4.54-12.07,10.32-10.35,8.67,2.58,2.35,9.37.71,13.75-9.85,26.27-25.19,50.61-28.04,83.92,31.17-38.24,38.49-85.5,69.05-124.14,2.17,39.79,14.09,73.12,33.18,104.25,5,8.15,9.03,12.66,18.52,8.74,9.25-3.83,7.55-10.1,4.45-17.33-2.82-6.57-4.72-13.52-7.66-22.15,32.15,5.56,50.59,25.92,66.59,49.57,3.31,4.9-.07,8.2-3.15,11.13-53.45,50.9-108.86,102.16-189.76,89.96ZM3341.1,1124.31c-13.65,25.36-31.35,45.08-56.13,59.22-30.09,17.17-53.22,44.09-84.03,60.35-17.94,9.47-35.67,19.37-53.5,29.07-1.36-1.35-2.73-2.7-4.09-4.04,41.15-27.51,73.93-62.89,100.58-104.51,5.77-9.01,15.36-16.05,24.26-22.52,36.29-26.38,68.8-55.93,87.58-97.9,2.12-4.73,6.37-7.21,11.01-9.37,20.19-9.4,38.59-21.72,56.93-34.27,7.58-5.19,13.33-10.6,15.16-22.17-47.07,12.86-91,31.31-133.64,52.15,19.85-24.12,56.12-59.39,81.83-65.81,43.03-10.75,81.67-32.68,121.88-51.48-11.75,20.57-20.71,41.33-40.36,57.1-32.14,25.8-61.45,55.27-90.67,84.48-19.06,19.06-24.36,46.52-36.83,69.69ZM4467.68,1374.47c-16.25-.74-30.94-4.57-45.92-11.46-31.3-14.39-63.65-26.53-95.67-39.31-24.27-9.69-46.77-21.97-65.9-40.19-40.25-38.32-81.48-75.65-111.33-123.36-7.08-11.32-17.71-18.73-30.38-23.19-93.57-32.84-133.83-40.54-197.69-123.24-8.57-11.59-18.35-5.98-27.37-1.67-8.37,3.99-10.46,9.97-9.8,20.82,2.11,34.42,22.26,61.24,34.72,91.19,6.3,15.16,21.8,23.18,34.12,33.17,18.47,14.96,30.7,33.51,36.92,56.16,8.63,31.39,20.41,61.31,39.85,88.18-29.98-16.31-58.97-34.63-81.21-59.61-27.51-30.9-62.87-44.66-99.91-56.66-97.56-27.47-59.15-60.43-111-62.6-14.64-.54-23.08-8.04-28.35-19.44-11.4-24.64-29.89-34.59-56.52-30.93-7.31,1-14.9.04-22.18,1.15-12.46,1.89-20.63-3.37-24.82-14.39-9.79-25.7-29.15-45.47-42.2-69.16-5.69-10.32-32.36-10.67-41.02-2.76-27.09,24.76-40.55,58.58-60.03,88.38-1.22-1.27-2.44-2.55-3.65-3.83,4.1-40.25,23.85-71.59,54.76-96.73,3.18-2.59,7.71-6.27,5.31-10.85-14.1-26.93,9.63-41.38,19.79-60.06,3.8-6.99,8.17-13.36,8.33-23.36-15.8,22.58-43.52,4.94-61.23,21.65,18.8-28.5,43.21-50.62,66.5-73.75,2.62-2.6,5.24-5.55,8.46-7.1,7.16-3.43,6.34-21.11,19.07-12.8,13.25,8.64,34.42,9.79,34.7,32.74.11,8.89,3.14,16.7,11.13,22.19,19.85,13.65,31.83,35.81,52.75,48.57,8.51,5.19,13.01,14.7,16.8,23.94,13.33,32.52,38.51,51.49,70.62,63.35,13.9,5.13,25.86,13.22,33.81,26.96,14.5,25.06,29.84,49.63,45.35,74.09,13.08,20.63,13.4,20.43,41.98,22.47-13.02-21.68-24.83-43-38.23-63.27-14.39-21.77-21.37-44.86-22.05-71.09-.88-33.47,1.25-66.59,4.85-99.75,3.34-11.26-35.25-78.12-47.19-53.7-2.82,4.62-1.05,11.33-7.76,15.36-10.38-20.72-16.62-43.32-30.41-62.05-3.71-5.03-.87-9.39,1.79-13.6,18.1-28.7,23.12-62.06,33.7-93.46,2.95-8.74-1.22-17.11,1.01-26.64,10.35.18,13.94,8.19,18.39,15.05,9.32,14.37,17.02,30.22,32.24,39.58,18.04,11.09,26.36,27.89,31.89,47.55,9.13,32.5,24.47,61.9,49.13,85.63,5.28,5.08,11.01,10.2,17.48,13.42,11.11,5.53,16.47,14.37,22.75,24.89,23.94,40.09,41.94,85.98,91.95,103.54,10.6,3.72,16.9,13.84,21.75,24.18,5.49,11.7,12.27,22.88,16.94,34.89,11.58,29.81,39.54,40.44,63.57,55.66,13.27,8.41,30.46,8.68,42.45,20.19,3.05,2.93,7.49,3.25,12.16,2.72,18.42-2.07,31.26,6.16,41.8,21.22,18.38,26.27,37.57,52.02,57.38,77.23,15.77,20.07,36.77,33.75,63.89,47.47-9.69-15.34-21.13-21.25-30.06-29.73-24.07-22.83-40.84-50.95-57.54-79.1-15.65-26.37-34.18-48.6-68.22-49.94-2.87-.11-6.15-1.58-8.43-3.42-35.12-28.32-77.19-49.99-92.73-97.07-21.73-66.82-83.46-48.5-95.37-106.04-3.28-17.52-15.66-31.6-21.86-49.12,8.41-2,11.84,4.34,16.33,7.45,26.09,18.09,53.53,27.73,85.4,16.69,8.1-2.81,17.23-2.72,25.19-5.8,21-8.11,30.28,8.85,42.65,19,3.02,2.48,4.47,4.26-2.52,5.68-5.8,1.18-15.29,8.84-5.99,17.87,13.93,13.53,19.37,31.19,25.42,48.6,14.48,41.65,36.59,76.95,79.64,94.2,35.59,14.26,52.24,47.8,76.07,73.86,19.09,20.87,37.15,42.73,51.75,67.36,28.56,48.2,72.18,78.74,123,99.45,50.91,20.75,96.12,50.6,139.5,85.59-60.16-3.09-120.31-6.39-180.48-9.13ZM5197.37,1406.92c-46.89-1.9-94.21-7.24-141.13-4.84-55.37,2.83-104.58-11.66-152.02-37.35-7-3.79-14.54-7.09-22.23-9-48.1-11.96-84.15-42.31-118.05-76.13-25.25-25.19-61.04-37.62-81.71-68.7-11.86-17.82-26.21-33.99-41.54-53.59,26.56,1.62,48.77,5.4,69.24,19.53,21.02,14.51,44.96,18.37,70.63,10.63,14.02-4.23,29.01-5.68,43.69-7.18,11.28-1.16,21.32,2.57,30.91,9.63,106.8,79.5,205.69,178.71,338.73,212.12,1.63.37,3.91.36,3.5,4.87Z"/>
    <path d="M2686.44,918.6c-4.54-23.17-17.9-41.97-29.46-61.59-2.31-3.92-7.69-4.95-11.52-3.41-5.99,2.4-2.17,7.08-.88,10.87,7.64,22.55,23.76,38.81,41.86,54.14Z"/>
  </g>
</svg>