<?xml version="1.0" encoding="UTF-8"?>
<svg id="Layer_2" data-name="Layer 2" xmlns="http://www.w3.org/2000/svg" viewBox="0 0 817.07 192.65">
  <defs>
    <style>
      .cls-1 {
        fill: #fff;
      }
    </style>
  </defs>
  <g id="Layer_1-2" data-name="Layer 1">
    <polygon class="cls-1" points="512.43 189.35 405.43 1.05 442.17 .87 512.31 117.59 581.05 .18 617.55 0 512.43 189.35"/>
    <polygon class="cls-1" points="206.18 1.72 121.88 129.58 122.18 191.29 88.02 191.46 87.71 129.42 0 2.74 40.07 2.54 103.9 93.17 165.39 1.92 206.18 1.72"/>
    <path class="cls-1" d="M817.07,113.31c.25,50.8-27.92,76.34-84.52,76.62-16.49.08-30.61-1.42-42.35-4.5-11.75-3.27-21.52-8.03-29.32-14.27-7.8-6.43-13.47-14.35-17-23.75-3.7-9.4-5.57-20.47-5.63-33.22l-.47-95.03,34.17-.17,2.55,103.18c.03,6.28.69,11.38,1.98,15.29,1.29,4.31,7.4,10.83,11.73,12.28,6.09,2.04,10.83,2.32,17.95,3.46,6.01.95,14.79,1.4,26.34,1.34,8.06-.04,14.78-.66,20.15-1.87,5.53-1.01,7.87-1.07,15.07-3.62,4.06-1.44,9.66-8.27,10.9-12.39,1.56-4.13,2.33-9.13,2.3-15.02l-.51-103.19,36.21-.18.47,95.03Z"/>
    <path class="cls-1" d="M302.98,18.48c33.13-.16,58.06,6.68,74.78,20.52,16.71,13.85,25.15,35.77,25.3,65.78.15,30.6-8.06,52.7-24.64,66.32-16.42,14.2-41.27,21.39-74.57,21.55-33.29.17-58.22-6.77-74.78-20.81-16.56-13.45-24.91-35.48-25.06-66.07-.15-30.01,7.98-52.01,24.4-66.02,16.42-14.01,41.27-21.09,74.57-21.26M303.64,157.85c12.46-.06,23.29-.83,32.48-2.29,9-1.23,16.18-3.87,21.52-7.93,5.35-3.58,9.34-8.82,12-15.71,2.45-6.89,3.66-15.9,3.6-27.05-.05-10.67-1.34-19.43-3.87-26.3-2.53-6.86-6.58-12.18-12.15-15.95-5.19-3.53-12.39-5.98-21.6-7.36-8.06-1.38-18.89-2.04-32.5-1.97-13.42.07-24.15.83-32.19,2.29-9.39,1.47-16.66,3.99-21.81,7.58-5.35,3.82-9.26,9.18-11.71,16.06-2.46,6.89-3.66,15.67-3.61,26.34.06,11.15,1.35,20.15,3.87,27.01,2.52,6.87,6.48,12.06,11.87,15.59,5.58,4.01,12.87,6.58,21.89,7.72,9.21,1.38,19.94,2.03,32.21,1.97"/>
  </g>
</svg>