<?xml version="1.0" encoding="UTF-8"?>
<svg id="Layer_2" data-name="Layer 2" xmlns="http://www.w3.org/2000/svg" viewBox="0 0 383.4 52.91">
  <defs>
    <style>
      .cls-1 {
        fill: #fff;
      }
    </style>
  </defs>
  <g id="layer">
    <polygon class="cls-1" points="187.1 .2 195.6 .2 195.6 45.3 224.2 45.3 224.2 52.9 187.1 52.9 187.1 .2"/>
    <rect class="cls-1" x="242" y=".2" width="8.5" height="52.7"/>
    <path class="cls-1" d="M330.5.2h19.7c4.3-.1,8.6.4,12.9,1.3,12.2,3,20.3,10.9,20.3,24.2s-8.3,22-21,25.5c-4.9,1.2-10,1.8-15,1.7h-16.9V.2ZM347.2,45.3c4.4.1,8.9-.4,13.2-1.5,8.8-2.5,14.2-8.3,14.2-18.1s-5.7-14.7-13.7-16.8c-3.8-.9-7.7-1.2-11.7-1.1h-10.3v37.5s8.3,0,8.3,0Z"/>
    <polygon class="cls-1" points="20.1 30.4 28.9 11.9 29 11.9 38.3 30.4 24.5 30.4 24.5 37.9 42.1 37.9 49.7 52.9 59 52.9 32 0 26.1 0 0 52.9 9.4 52.9 20.1 30.4"/>
    <path class="cls-1" d="M170.2,17.1c0,10.2-7.4,15.2-14.9,16.7-3.2.6-6.4.9-9.7.8h-.5v-7.6h.8c2.5.1,5.1-.1,7.6-.6,4.3-1,7.7-3.8,7.7-9.1s-2.9-7.7-6.6-8.8c-2.4-.7-5.2-.7-8.6-.7h-6.5v45.1h-8.5V.2h15.6c3.5-.1,6.9.2,10.3,1,7.1,1.8,13.3,6.4,13.3,15.9"/>
    <path class="cls-1" d="M114.3,17.1c0,10.2-7.4,15.2-14.9,16.7-3.2.6-6.4.9-9.7.8h-.5v-7.6h.8c2.5.1,5.1-.1,7.6-.6,4.3-1,7.7-3.8,7.7-9.1s-2.9-7.7-6.6-8.8c-2.4-.7-5.2-.7-8.6-.7h-6.5v45.1h-8.5V.2h15.6c3.5-.1,6.9.2,10.3,1,7.1,1.8,13.3,6.4,13.3,15.9"/>
    <path class="cls-1" d="M281.4,30v15.3h29.6v7.6h-38V.2h37.5v7.6h-29.1v22.2ZM286.9,30h20.6v-7.6h-20.6v7.6Z"/>
  </g>
</svg>