<?xml version="1.0" encoding="UTF-8"?>
<svg id="layer" xmlns="http://www.w3.org/2000/svg" version="1.1" viewBox="0 0 599.9 128.1">
  <!-- Generator: Adobe Illustrator 30.5.1, SVG Export Plug-In . SVG Version: 2.1.4 Build 3)  -->
  <defs>
    <style>
      .st0 {
        fill: #00b3e6;
      }

      .st1 {
        fill: #3d3d40;
      }
    </style>
  </defs>
  <path class="st0" d="M34.2,58l34.2,70.1H0L34.2,58ZM109.3,0h-46.8l62.5,128.1h46.8L109.3,0Z"/>
  <polygon class="st1" points="403.6 46.3 412.1 46.3 412.1 91.4 440.7 91.4 440.7 99 403.6 99 403.6 46.3"/>
  <rect class="st1" x="458.5" y="46.3" width="8.5" height="52.7"/>
  <path class="st1" d="M547,46.3h19.7c4.3-.1,8.6.4,12.9,1.3,12.2,3,20.3,10.9,20.3,24.2s-8.3,22-21,25.5c-4.9,1.2-10,1.8-15,1.7h-16.9v-52.7ZM563.7,91.4c4.4.1,8.9-.4,13.2-1.5,8.8-2.5,14.2-8.3,14.2-18.1s-5.7-14.7-13.7-16.8c-3.8-.9-7.7-1.2-11.7-1.1h-10.3v37.5h8.3Z"/>
  <polygon class="st1" points="236.6 76.5 245.4 58 245.5 58 254.8 76.5 241 76.5 241 84 258.6 84 266.2 99 275.5 99 248.5 46.1 242.6 46.1 216.5 99 225.9 99 236.6 76.5"/>
  <path class="st1" d="M386.7,63.2c0,10.2-7.4,15.2-14.9,16.7-3.2.6-6.4.9-9.7.8h-.5v-7.6h.8c2.5.1,5.1-.1,7.6-.6,4.3-1,7.7-3.8,7.7-9.1s-2.9-7.7-6.6-8.8c-2.4-.7-5.2-.7-8.6-.7h-6.5v45.1h-8.5v-52.7h15.6c3.5-.1,6.9.2,10.3,1,7.1,1.8,13.3,6.4,13.3,15.9"/>
  <path class="st1" d="M330.8,63.2c0,10.2-7.4,15.2-14.9,16.7-3.2.6-6.4.9-9.7.8h-.5v-7.6h.8c2.5.1,5.1-.1,7.6-.6,4.3-1,7.7-3.8,7.7-9.1s-2.9-7.7-6.6-8.8c-2.4-.7-5.2-.7-8.6-.7h-6.5v45.1h-8.5v-52.7h15.6c3.5-.1,6.9.2,10.3,1,7.1,1.8,13.3,6.4,13.3,15.9"/>
  <path class="st1" d="M497.9,76.1v15.3h29.6v7.6h-38v-52.7h37.5v7.6h-29.1v22.2ZM503.4,76.1h20.6v-7.6h-20.6v7.6Z"/>
</svg>