<?xml version="1.0" encoding="UTF-8"?>
<svg id="Layer_2" data-name="Layer 2" xmlns="http://www.w3.org/2000/svg" viewBox="0 0 1143.2 269.6">
  <g id="Mark_Up" data-name="Mark Up">
    <g>
      <path d="M716.9,265L567.2,1.6l51.4-.3,98.1,163.3L812.9.3l51.1-.3-147.1,264.9h0v.1Z"/>
      <path d="M288.5,2.5l-117.9,178.9.4,86.3-47.8.2-.4-86.8L0,3.9l56.1-.3,89.3,126.8L231.4,2.7l57.1-.3h0v.1Z"/>
      <path d="M1143.1,158.6c.4,71.1-39.1,106.8-118.2,107.2-23.1.1-42.8-2-59.3-6.3-16.4-4.6-30.1-11.2-41-20-10.9-9-18.8-20.1-23.8-33.2-5.2-13.1-7.8-28.6-7.9-46.5l-.7-132.9,47.8-.2,3.6,144.4c0,8.8,1,15.9,2.8,21.4,1.8,6,10.3,15.2,16.4,17.2,8.5,2.8,15.1,3.2,25.1,4.8,8.4,1.3,20.7,2,36.8,1.9,11.3,0,20.7-.9,28.2-2.6,7.7-1.4,11-1.5,21.1-5.1,5.7-2,13.5-11.6,15.3-17.3,2.2-5.8,3.3-12.8,3.2-21l-.7-144.4,50.7-.3.7,132.9h-.1Z"/>
      <path d="M423.9,25.9c46.4-.2,81.2,9.3,104.6,28.7,23.4,19.4,35.2,50,35.4,92,.2,42.8-11.3,73.7-34.5,92.8-23,19.9-57.7,29.9-104.3,30.2-46.6.2-81.5-9.5-104.6-29.1-23.2-18.8-34.8-49.6-35.1-92.4-.2-42,11.2-72.8,34.1-92.4,23-19.6,57.7-29.5,104.3-29.7h0l.1-.1ZM424.8,220.9c17.4,0,32.6-1.2,45.4-3.2,12.6-1.7,22.6-5.4,30.1-11.1,7.5-5,13.1-12.3,16.8-22,3.4-9.6,5.1-22.2,5-37.8,0-14.9-1.9-27.2-5.4-36.8-3.5-9.6-9.2-17-17-22.3-7.3-4.9-17.3-8.4-30.2-10.3-11.3-1.9-26.4-2.9-45.5-2.8-18.8,0-33.8,1.2-45,3.2-13.1,2.1-23.3,5.6-30.5,10.6-7.5,5.3-12.9,12.8-16.4,22.5-3.4,9.6-5.1,21.9-5,36.9,0,15.6,1.9,28.2,5.4,37.8s9.1,16.9,16.6,21.8c7.8,5.6,18,9.2,30.6,10.8,12.9,1.9,27.9,2.8,45.1,2.8h0v-.1Z"/>
    </g>
  </g>
</svg>